<svg xmlns="http://www.w3.org/2000/svg" width="600" height="600" viewBox="0 0 600 600" role="img" aria-labelledby="title desc">
  <title id="title">Product placeholder</title>
  <desc id="desc">A neutral placeholder image for missing product photos.</desc>
  <defs>
    <linearGradient id="bg" x1="0" y1="0" x2="1" y2="1">
      <stop offset="0%" stop-color="#f3f4f6"/>
      <stop offset="100%" stop-color="#e5e7eb"/>
    </linearGradient>
  </defs>
  <rect width="600" height="600" rx="48" fill="url(#bg)"/>
  <circle cx="220" cy="220" r="58" fill="#d1d5db"/>
  <path d="M120 420l118-118c12-12 31-12 43 0l53 53 83-83c12-12 31-12 43 0l120 120v86H120z" fill="#cbd5e1"/>
  <path d="M120 420l118-118c12-12 31-12 43 0l53 53 83-83c12-12 31-12 31-12" fill="none" stroke="#94a3b8" stroke-width="10" stroke-linecap="round" stroke-linejoin="round"/>
  <rect x="140" y="470" width="320" height="24" rx="12" fill="#cbd5e1"/>
</svg>
